<?xml version="1.0" encoding="UTF-8" standalone="no" ?>
<!DOCTYPE svg PUBLIC "-//W3C//DTD SVG 1.1//EN" "http://www.w3.org/Graphics/SVG/1.1/DTD/svg11.dtd">
<svg xmlns="http://www.w3.org/2000/svg" xmlns:xlink="http://www.w3.org/1999/xlink" version="1.1" width="1272" height="358" viewBox="0 0 1272 358" xml:space="preserve">
<g transform="matrix(0.7130955416 0 0 0.7130955416 129.5769419381 164)" id="2MJwsEPbdrNskRcwpsHpg"  >
<path style="stroke: rgb(3,3,130); stroke-width: 1; stroke-dasharray: none; stroke-linecap: butt; stroke-dashoffset: 0; stroke-linejoin: miter; stroke-miterlimit: 4; fill: rgb(255,255,255); fill-rule: nonzero; opacity: 1;"  transform=" translate(-260.0361519742, -260.9817141899)" d="M 313 228 C 335.649 219.694 354.946 210.844 370.062 191 C 405.266 144.785 390.448 76.8756 341 47.6188 C 296.725 21.4229 223.739 35 174 35 L 107 35 C 101.868 35 87.0619 32.4577 83.2598 36.2598 C 76.5712 42.9483 82 78.3622 82 88 L 82 239 L 82 421 L 82 469 C 82 473.954 80.1012 483.878 82.8216 488.178 C 85.1687 491.889 96.2024 490 100 490 L 151 490 L 274 490 C 306.531 490 337.79 491.458 368 477.197 C 489.798 419.698 447.959 228.017 313 228 M 171 465 C 171 468.655 172.532 476.948 169.74 479.74 C 166.714 482.766 156.96 481 153 481 C 140.982 481 104.02 487.248 94.8216 479.74 C 91.489 477.02 93 468.827 93 465 C 125.026 468.946 115 418.319 115 398 L 115 171 C 115 150.226 126.093 89.9349 93 94 C 93 72.7786 109.174 79.5545 124.997 70.3519 C 130.757 67.002 132.852 59.6915 137.771 56.8217 C 140.848 55.0262 152.948 54.5807 154.499 58.5015 C 157.381 65.7879 155 78.1925 155 86 L 155 151 L 155 372 C 155 396.65 154.511 421.356 155.019 446 C 155.231 456.33 158.945 466.633 171 465 M 256 74.3202 C 284.602 71.3446 323.544 76.6451 343.761 99.0187 C 386.301 146.096 335.388 196.379 287 201.677 C 257.476 204.91 217.777 202.661 195.144 180.763 C 172.39 158.748 172.907 115.111 197.008 94.3682 C 213.497 80.1766 235.173 76.4869 256 74.3202 M 251 111.439 C 229.953 113.858 191.862 135.798 223.003 157.034 C 240.281 168.817 268.303 167.003 288 164.687 C 307.667 162.374 341.975 141.292 314.951 120.879 C 298.764 108.652 270.21 109.231 251 111.439 M 275 275.32 C 314.566 271.193 369.187 277.341 397.775 308.041 C 426.391 338.77 424.811 395.237 393.992 423.856 C 374.707 441.766 346.552 449.214 321 451.79 C 279.266 455.998 225.142 453.889 193.019 422.919 C 161.945 392.962 161.253 333.572 194.019 304.34 C 216.128 284.615 246.442 278.299 275 275.32 M 275 326.438 C 259.572 328.188 243.061 329.436 230.001 338.878 C 212.18 351.763 212.718 377.996 231.003 390.194 C 255.244 406.366 295.372 403.922 323 400.673 C 351.125 397.366 394.587 367.371 358.992 339.623 C 338.214 323.425 299.981 323.604 275 326.438 z" stroke-linecap="round" />
</g>
<g transform="matrix(1 0 0 1 786.3726338762 228.9487782484)" style="" id="4GsTX0sMvBm-R0kALEsSU"  >
		<text xml:space="preserve" font-family="Arial" font-size="237" font-style="normal" font-weight="normal" line-height="1" style="stroke: rgb(3,3,130); stroke-width: 2; stroke-dasharray: none; stroke-linecap: butt; stroke-dashoffset: 0; stroke-linejoin: miter; stroke-miterlimit: 4; fill: rgb(255,255,255); fill-rule: nonzero; opacity: 1; white-space: pre;" paint-order="stroke"  ><tspan x="-533" y="74.35618" >yteInsight</tspan></text>
</g>
</svg>